<svg version="1.0" xmlns="http://www.w3.org/2000/svg"
 width="512.000000pt" height="512.000000pt" viewBox="0 0 512.000000 512.000000"
 preserveAspectRatio="xMidYMid meet">

<g transform="translate(0.000000,512.000000) scale(0.100000,-0.100000)"
fill="#000000" stroke="none">
<path fill="#883100" d="M3028 4739 c-145 -19 -328 -108 -426 -206 l-54 -53 -43 47 c-55 62
-180 137 -292 176 -70 24 -110 31 -196 35 -101 4 -204 -8 -237 -28 -9 -6 5
-37 53 -119 84 -141 158 -239 244 -322 77 -75 103 -90 293 -170 l135 -56 3
-157 3 -158 -48 40 c-137 115 -387 197 -538 177 -52 -6 -155 -33 -155 -40 0
-15 124 -215 177 -287 128 -173 204 -228 458 -333 l100 -42 3 -159 3 -159 -43
41 c-55 53 -115 93 -214 143 -179 90 -376 121 -553 86 -50 -10 -91 -20 -91
-23 0 -3 23 -47 51 -96 155 -273 319 -461 469 -541 41 -21 143 -66 225 -100
l150 -61 3 -337 2 -338 25 -11 c19 -8 31 -8 50 0 l25 12 0 340 0 340 23 10
c12 5 65 26 117 46 198 77 277 122 372 213 49 46 122 130 162 185 114 157 214
330 197 340 -54 34 -287 46 -401 22 -144 -31 -349 -132 -433 -214 l-38 -37 3
154 3 153 83 34 c196 78 252 112 342 203 48 47 107 115 132 151 40 58 158 255
158 265 0 2 -25 11 -55 20 -180 52 -395 8 -587 -121 l-79 -52 3 150 3 150 105
42 c181 73 241 110 327 200 43 44 99 110 125 146 56 79 161 260 155 266 -10
11 -112 33 -170 37 -34 3 -92 1 -129 -4z m-932 -114 c136 -26 300 -120 360
-206 25 -36 30 -53 33 -121 2 -43 0 -90 -3 -104 -8 -31 -12 -30 -164 42 -87
41 -127 66 -176 114 -60 57 -149 172 -196 253 l-22 37 45 0 c25 0 80 -7 123
-15z m1053 -22 c-80 -134 -191 -263 -269 -313 -62 -40 -250 -123 -259 -115 -3
4 -8 47 -9 96 -4 81 -2 93 23 134 69 118 303 231 483 234 l54 1 -23 -37z
m-1023 -783 c142 -36 280 -122 334 -207 27 -43 30 -55 30 -132 0 -48 -4 -91
-8 -98 -9 -15 -204 67 -274 115 -73 50 -179 176 -257 305 l-23 37 60 0 c32 0
94 -9 138 -20z m1023 -17 c-81 -135 -191 -263 -267 -312 -58 -37 -253 -123
-261 -115 -12 12 -13 158 -1 197 37 124 298 263 498 266 l54 1 -23 -37z
m-1177 -707 c214 -41 431 -174 493 -301 25 -50 27 -62 23 -159 -2 -65 -8 -110
-15 -117 -28 -28 -320 112 -412 197 -110 101 -303 370 -278 386 19 12 108 9
189 -6z m1345 6 c25 -16 -168 -285 -278 -386 -91 -84 -384 -225 -411 -198 -16
16 -23 187 -9 237 47 172 362 348 636 354 28 0 56 -3 62 -7z"/>
<path fill="#883100" d="M440 4311 c-78 -25 -136 -78 -172 -156 l-23 -50 -6 -930 c-4 -660 -9
-960 -18 -1034 -25 -208 26 -425 136 -576 48 -65 358 -397 666 -714 216 -221
306 -307 367 -348 l80 -53 0 -120 0 -120 453 2 452 3 3 185 c6 361 -39 613
-154 859 -93 199 -212 344 -414 506 -129 102 -135 109 -568 611 -171 199 -327
375 -347 391 -20 17 -54 35 -75 42 l-39 12 -3 647 c-3 598 -4 650 -21 687 -23
51 -80 111 -132 137 -43 22 -144 33 -185 19z m150 -123 c18 -13 43 -36 54 -51
21 -28 21 -37 24 -672 l3 -643 -40 -15 c-124 -50 -189 -192 -151 -329 13 -47
31 -69 439 -541 290 -336 338 -387 362 -387 34 0 61 33 50 62 -4 10 -169 206
-366 434 -198 229 -366 428 -374 442 -8 15 -15 47 -15 72 0 113 113 188 216
142 37 -16 103 -87 409 -438 398 -457 431 -493 564 -599 166 -133 275 -267
355 -438 105 -224 150 -449 150 -754 l0 -153 -345 0 -344 0 -3 93 -3 92 -96
65 c-79 53 -147 117 -374 350 -373 383 -642 677 -688 753 -80 131 -115 338
-86 507 9 56 14 316 18 1002 6 920 6 927 27 955 35 48 82 73 134 73 32 0 57
-7 80 -22z"/>
<path fill="#883100" d="M4570 4311 c-50 -16 -87 -41 -124 -81 -75 -83 -71 -41 -74 -762 -3
-582 -4 -648 -19 -648 -8 0 -37 -12 -63 -26 -38 -21 -121 -111 -406 -442 -411
-476 -424 -490 -559 -597 -176 -139 -282 -265 -373 -443 -133 -258 -187 -534
-180 -922 l3 -175 453 -3 452 -2 0 120 0 119 73 49 c124 85 954 943 1054 1092
88 130 125 270 125 471 0 76 -4 144 -9 151 -4 7 -10 436 -13 953 l-5 940 -23
50 c-28 60 -73 110 -127 137 -43 22 -144 33 -185 19z m151 -124 c19 -12 44
-42 57 -67 l22 -44 0 -865 c0 -713 3 -890 16 -1014 26 -253 -11 -431 -119
-572 -72 -92 -263 -297 -656 -703 -243 -250 -298 -302 -377 -353 l-94 -61 0
-94 0 -94 -345 0 -345 0 0 163 c1 524 171 928 495 1175 133 101 205 177 560
591 385 448 409 471 484 471 46 0 106 -34 131 -74 32 -53 36 -96 12 -147 -12
-26 -170 -216 -381 -459 -366 -421 -383 -444 -349 -478 7 -7 24 -12 39 -12 22
0 80 62 390 424 200 234 375 446 389 473 33 64 35 169 3 228 -28 52 -88 110
-136 130 l-37 15 2 644 c3 636 3 645 24 673 55 74 147 96 215 50z"/>
</g>
</svg>
