<svg version="1.0" xmlns="http://www.w3.org/2000/svg"
 width="512.000000pt" height="512.000000pt" viewBox="0 0 512.000000 512.000000"
 preserveAspectRatio="xMidYMid meet">

<g transform="translate(0.000000,512.000000) scale(0.100000,-0.100000)"
fill="#883100" stroke="none">
<path d="M2125 5101 c-63 -29 -88 -62 -93 -126 -6 -74 14 -124 103 -260 168
-254 228 -439 228 -695 -1 -340 -129 -697 -467 -1302 l-88 -158 -135 0 -135 0
18 28 c228 347 229 348 229 452 0 58 -5 84 -23 117 -57 108 -148 167 -261 167
-129 2 -121 8 -566 -434 -337 -336 -406 -400 -440 -409 -22 -6 -117 -11 -211
-11 -161 0 -173 -1 -205 -23 -19 -12 -44 -42 -56 -67 -23 -44 -23 -47 -23
-502 0 -506 -1 -499 63 -555 45 -40 57 -41 297 -46 237 -5 263 -12 465 -112
156 -78 277 -117 400 -130 73 -8 66 3 84 -125 29 -215 159 -501 292 -645 93
-100 261 -200 409 -242 61 -17 125 -18 1020 -18 1065 0 1004 -4 1166 70 203
92 339 235 455 479 95 199 135 397 125 616 -4 74 -9 150 -12 168 l-6 32 156 0
c153 0 157 1 181 25 32 31 32 75 1 112 l-24 28 -175 3 -174 4 -52 151 c-29 84
-55 160 -58 170 -5 16 6 17 135 17 77 0 148 3 157 6 19 8 45 55 45 84 0 12
-13 35 -29 51 l-29 29 -184 1 -183 0 -80 160 c-44 88 -81 164 -83 169 -2 6 50
10 138 10 136 0 142 1 165 25 31 30 33 83 6 116 -19 23 -24 24 -217 29 l-197
5 -65 115 c-264 471 -411 811 -461 1073 -69 358 -15 631 188 940 45 69 91 149
102 176 38 101 17 180 -61 225 -35 21 -47 21 -915 23 -839 3 -882 2 -920 -16z
m1745 -159 c0 -8 -27 -53 -110 -181 l-45 -70 -680 0 -680 -1 -71 108 c-39 59
-74 118 -78 130 l-7 22 835 0 c460 0 836 -4 836 -8z m-264 -484 c-51 -136 -69
-250 -69 -438 0 -151 3 -192 26 -300 60 -286 190 -598 426 -1024 39 -70 71
-130 71 -132 0 -2 -191 -4 -425 -4 l-426 0 -24 -25 c-31 -30 -33 -83 -6 -116
l19 -24 482 -5 482 -5 84 -160 c46 -88 84 -163 84 -167 0 -4 -196 -9 -435 -10
-434 -3 -434 -3 -457 -25 -30 -31 -30 -84 2 -118 l23 -25 478 0 477 0 32 -77
c33 -79 90 -240 90 -255 0 -4 -185 -9 -411 -10 l-411 -3 -24 -28 c-29 -34 -31
-76 -5 -108 l19 -24 438 -5 438 -5 8 -35 c19 -84 21 -255 4 -368 -50 -335
-221 -612 -448 -721 -152 -73 -108 -71 -1114 -71 -864 0 -904 1 -978 20 -155
39 -297 137 -385 264 -100 145 -182 353 -197 501 l-7 64 449 3 c397 3 453 5
485 20 54 25 96 64 127 117 23 40 27 57 27 127 l0 82 91 4 c79 3 97 8 133 31
85 56 127 146 118 249 l-5 58 36 0 c48 1 108 29 151 71 113 112 97 298 -33
386 -64 44 -103 53 -221 53 l-100 0 0 78 c0 55 -6 87 -19 112 -25 49 -74 98
-121 123 -38 21 -55 22 -307 25 -148 2 -268 5 -268 8 0 2 44 84 97 182 180
329 293 587 357 810 100 348 93 667 -19 945 -7 16 25 17 588 17 l596 0 -23
-62z m-2061 -1312 c38 -16 75 -68 75 -105 0 -37 -30 -91 -145 -267 -102 -154
-105 -161 -105 -215 0 -68 26 -113 85 -146 40 -23 40 -23 543 -23 l504 0 29
-29 c31 -31 36 -59 17 -94 -24 -47 -21 -46 -456 -47 l-414 0 -29 -29 c-31 -31
-36 -59 -17 -94 25 -48 8 -46 661 -47 675 0 662 1 686 -58 14 -33 4 -67 -26
-94 -18 -16 -69 -18 -651 -20 -617 -3 -632 -3 -651 -23 -35 -34 -37 -77 -6
-113 l26 -31 506 -3 505 -3 24 -28 c31 -37 31 -81 -1 -112 l-24 -25 -486 0
c-402 0 -492 -3 -520 -15 -40 -16 -59 -54 -50 -97 13 -57 20 -58 365 -58 280
0 319 -2 350 -18 65 -32 63 -119 -5 -147 -28 -12 -113 -15 -482 -15 -658 0
-712 8 -968 135 -207 103 -260 116 -512 122 l-203 6 0 422 0 423 178 4 c260 5
213 -25 687 448 215 214 401 394 415 399 35 14 56 13 95 -3z"/>
<path d="M1733 824 c-22 -22 -25 -32 -21 -69 7 -57 55 -157 106 -221 100 -126
348 -228 439 -180 34 17 43 33 43 77 0 48 -35 75 -108 82 -143 15 -251 101
-304 240 -11 29 -29 62 -41 75 -29 31 -80 30 -114 -4z"/>
</g>
</svg>
