<svg xmlns="http://www.w3.org/2000/svg" version="1.1" width="700px" height="700px" viewBox="0 0 700.000000 700.000000" style="shape-rendering:geometricPrecision; text-rendering:geometricPrecision; image-rendering:optimizeQuality; fill-rule:evenodd; clip-rule:evenodd" xmlns:xlink="http://www.w3.org/1999/xlink" transform="scale(1.2)">
<g><path fill="#883100" d="M 339.5,73.5 C 346.175,73.3337 352.842,73.5004 359.5,74C 368.307,79.2394 377.307,84.2394 386.5,89C 397.22,88.6363 407.887,87.4697 418.5,85.5C 428.848,85.7785 437.014,90.1119 443,98.5C 448.136,106.296 453.97,113.463 460.5,120C 468.404,122.309 476.404,124.309 484.5,126C 493.741,128.95 500.575,134.783 505,143.5C 507.207,152.869 509.54,162.202 512,171.5C 518.562,178.06 525.729,183.894 533.5,189C 542.064,195.128 546.398,203.462 546.5,214C 544.876,224.155 543.709,234.322 543,244.5C 546.312,252.46 550.645,259.794 556,266.5C 562.674,281.124 560.674,294.458 550,306.5C 547.667,311.167 545.333,315.833 543,320.5C 543.644,330.852 544.811,341.186 546.5,351.5C 545.988,355.894 545.154,360.228 544,364.5C 537.714,373.785 529.547,380.952 519.5,386C 516.667,388.167 514.167,390.667 512,393.5C 509.667,402.833 507.333,412.167 505,421.5C 499.379,433.417 489.879,440.083 476.5,441.5C 496.105,485.421 515.938,529.755 536,574.5C 538.513,583.498 535.18,588.165 526,588.5C 511.162,586.87 496.329,585.203 481.5,583.5C 480.167,583.833 478.833,584.167 477.5,584.5C 467.711,597.912 458.044,611.412 448.5,625C 444.833,625.667 441.167,625.667 437.5,625C 436,624.167 434.833,623 434,621.5C 415.507,579.88 397.173,538.547 379,497.5C 376.407,493.223 373.907,488.89 371.5,484.5C 356.833,496.5 342.167,496.5 327.5,484.5C 327.167,484.833 326.833,485.167 326.5,485.5C 307.595,528.052 288.595,570.552 269.5,613C 266.978,616.915 264.644,620.915 262.5,625C 258.5,625.667 254.5,625.667 250.5,625C 240.845,611.367 231.178,597.701 221.5,584C 205.489,585.019 189.489,586.519 173.5,588.5C 165.031,588.196 161.531,583.863 163,575.5C 183.146,530.865 202.98,486.198 222.5,441.5C 209.121,440.083 199.621,433.417 194,421.5C 191.667,412.167 189.333,402.833 187,393.5C 180.907,387.243 174.074,381.91 166.5,377.5C 162.51,373.341 158.676,369.007 155,364.5C 153.846,360.228 153.012,355.894 152.5,351.5C 154.189,341.186 155.356,330.852 156,320.5C 151.852,312.204 147.185,304.204 142,296.5C 136.571,282.409 138.904,269.742 149,258.5C 151.349,253.802 153.682,249.136 156,244.5C 155.291,234.322 154.124,224.155 152.5,214C 152.602,203.462 156.936,195.128 165.5,189C 173.271,183.894 180.438,178.06 187,171.5C 189.46,162.202 191.793,152.869 194,143.5C 198.425,134.783 205.259,128.95 214.5,126C 222.596,124.309 230.596,122.309 238.5,120C 245.03,113.463 250.864,106.296 256,98.5C 261.986,90.1119 270.152,85.7785 280.5,85.5C 291.113,87.4697 301.78,88.6363 312.5,89C 321.921,84.2981 330.921,79.1314 339.5,73.5 Z M 348.5,91.5 C 359.168,95.3343 369.168,100.501 378.5,107C 384.863,109.442 391.363,109.942 398,108.5C 404.831,107.906 411.497,106.573 418,104.5C 422.836,105.918 426.836,108.584 430,112.5C 434.687,120.858 440.52,128.358 447.5,135C 449.5,136 451.5,137 453.5,138C 462.869,140.207 472.202,142.54 481.5,145C 483.333,146.833 485.167,148.667 487,150.5C 489.156,158.792 491.156,167.125 493,175.5C 497.386,186.221 504.886,194.055 515.5,199C 519.053,202.04 522.553,205.207 526,208.5C 527.86,213.995 527.526,219.328 525,224.5C 523.752,231.479 523.085,238.479 523,245.5C 523.413,248.232 524.08,250.899 525,253.5C 529.972,261.282 534.805,269.116 539.5,277C 539.167,277.333 538.833,277.667 538.5,278C 539.704,279.353 540.371,281.019 540.5,283C 540.333,284.5 540.167,286 540,287.5C 531.711,298.409 525.878,310.409 522.5,323.5C 523.386,332.89 525.053,342.057 527.5,351C 527.204,352.888 526.704,354.722 526,356.5C 519.431,363.387 511.931,369.22 503.5,374C 501.372,377.13 498.872,379.963 496,382.5C 492.401,392.226 489.735,402.226 488,412.5C 486.474,416.693 483.641,419.526 479.5,421C 469.315,423.046 459.315,425.713 449.5,429C 441.852,435.312 435.685,442.812 431,451.5C 428.106,454.733 424.939,457.566 421.5,460C 410.765,459.737 400.265,458.237 390,455.5C 388.374,456.018 386.707,456.352 385,456.5C 372.92,462.123 361.087,468.123 349.5,474.5C 337.913,468.123 326.08,462.123 314,456.5C 312.293,456.352 310.626,456.018 309,455.5C 298.735,458.237 288.235,459.737 277.5,460C 270.25,455.012 264.75,448.512 261,440.5C 257.194,436.694 253.36,432.86 249.5,429C 239.685,425.713 229.685,423.046 219.5,421C 215.359,419.526 212.526,416.693 211,412.5C 209.265,402.226 206.599,392.226 203,382.5C 198.116,375.807 191.949,370.641 184.5,367C 180.72,363.374 176.887,359.874 173,356.5C 172.296,354.722 171.796,352.888 171.5,351C 173.955,341.985 175.622,332.818 176.5,323.5C 173.122,310.409 167.289,298.409 159,287.5C 158.833,286 158.667,284.5 158.5,283C 158.629,281.019 159.296,279.353 160.5,278C 160.167,277.667 159.833,277.333 159.5,277C 164.195,269.116 169.028,261.282 174,253.5C 174.92,250.899 175.587,248.232 176,245.5C 175.847,234.925 174.347,224.592 171.5,214.5C 171.692,212.423 172.192,210.423 173,208.5C 179.288,201.882 186.454,196.382 194.5,192C 199.851,187.57 203.684,182.07 206,175.5C 207.844,167.125 209.844,158.792 212,150.5C 213.833,148.667 215.667,146.833 217.5,145C 226.798,142.54 236.131,140.207 245.5,138C 250.858,135.646 255.358,132.146 259,127.5C 262.581,122.672 265.915,117.672 269,112.5C 273.849,106.319 279.849,104.319 287,106.5C 295.457,108.09 303.957,108.924 312.5,109C 315.232,108.587 317.899,107.92 320.5,107C 329.476,101.016 338.81,95.849 348.5,91.5 Z M 240.5,447.5 C 242.463,448.96 244.296,450.627 246,452.5C 249.984,459.298 254.484,465.632 259.5,471.5C 250.098,492.869 240.598,514.203 231,535.5C 229.675,544.506 233.508,548.672 242.5,548C 244.587,547.208 246.421,546.041 248,544.5C 257.594,523.22 267.094,501.886 276.5,480.5C 287.01,478.88 297.51,477.213 308,475.5C 308.5,475.833 309,476.167 309.5,476.5C 308.478,477.354 307.645,478.354 307,479.5C 289.408,519.021 272.075,558.687 255,598.5C 247.435,586.523 239.268,575.023 230.5,564C 228.863,563.399 227.197,562.899 225.5,562.5C 214.174,563.7 203.007,565.366 192,567.5C 190.833,567.167 189.667,566.833 188.5,566.5C 201.555,535.398 215.388,504.731 230,474.5C 233.52,465.468 237.02,456.468 240.5,447.5 Z M 456.5,447.5 C 459.027,449.51 460.861,452.177 462,455.5C 478.623,492.582 495.123,529.749 511.5,567C 499.035,565.603 486.535,564.103 474,562.5C 471.485,563.115 469.152,564.115 467,565.5C 459.241,576.029 451.741,586.696 444.5,597.5C 426.776,557.104 408.443,516.604 389.5,476C 400.45,477.23 411.45,478.563 422.5,480C 432.523,501.732 442.357,523.566 452,545.5C 458.07,549.93 463.403,549.264 468,543.5C 468.667,540.5 468.667,537.5 468,534.5C 458.363,513.393 448.863,492.226 439.5,471C 446.138,463.863 451.804,456.03 456.5,447.5 Z"/></g>
<g><path fill="#883100" style="opacity:0.903" d="M 333.5,124.5 C 364.848,122.167 394.515,128 422.5,142C 428.107,150.833 425.941,156.667 416,159.5C 394.691,149.756 372.357,144.422 349,143.5C 312.345,144.046 280.511,156.546 253.5,181C 209.421,226.937 198.921,279.77 222,339.5C 227.497,349.831 233.497,359.831 240,369.5C 241.537,380.298 237.037,384.465 226.5,382C 198.512,347.92 187.012,308.753 192,264.5C 199.24,210.911 226.407,170.411 273.5,143C 282.353,139.162 291.186,135.329 300,131.5C 311.157,128.452 322.323,126.118 333.5,124.5 Z"/></g>
<g><path fill="#883100" style="opacity:0.876" d="M 445.5,161.5 C 447.927,161.523 450.26,162.023 452.5,163C 458.667,167.833 464.167,173.333 469,179.5C 471.336,190.162 467.169,194.662 456.5,193C 451.021,187.19 445.188,181.69 439,176.5C 436.283,169.275 438.45,164.275 445.5,161.5 Z"/></g>
<g><path fill="#883100" style="opacity:0.904" d="M 345.5,180.5 C 351.731,179.856 357.231,181.522 362,185.5C 370.3,202.599 378.466,219.766 386.5,237C 404.741,240.072 423.074,242.739 441.5,245C 446.598,246.433 450.098,249.6 452,254.5C 452.826,259.589 452.492,264.589 451,269.5C 437.033,281.799 423.366,294.466 410,307.5C 412.54,326.034 416.04,344.367 420.5,362.5C 420.146,365.251 419.479,367.917 418.5,370.5C 415.833,372.5 413.5,374.833 411.5,377.5C 406.239,379.918 400.906,380.084 395.5,378C 385.5,372 375.5,366 365.5,360C 360.282,357.224 354.949,354.724 349.5,352.5C 344.051,354.724 338.718,357.224 333.5,360C 323.5,366 313.5,372 303.5,378C 298.094,380.084 292.761,379.918 287.5,377.5C 285.5,374.833 283.167,372.5 280.5,370.5C 279.521,367.917 278.854,365.251 278.5,362.5C 282.961,344.36 286.461,326.026 289,307.5C 275.634,294.466 261.967,281.799 248,269.5C 246,263.5 246,257.5 248,251.5C 249.873,249.291 252.04,247.458 254.5,246C 273.85,242.998 293.183,239.998 312.5,237C 320.572,219.523 328.906,202.189 337.5,185C 340.099,183.205 342.766,181.705 345.5,180.5 Z M 348.5,204.5 C 342.289,219.302 335.789,233.968 329,248.5C 327.623,250.754 326.123,252.92 324.5,255C 305.873,257.958 287.207,260.625 268.5,263C 280.192,273.362 291.859,283.695 303.5,294C 305.706,296.864 307.872,299.697 310,302.5C 306.293,320.708 302.959,339.041 300,357.5C 316.163,347.836 332.663,338.836 349.5,330.5C 366.337,338.836 382.837,347.836 399,357.5C 396.464,339.654 392.964,321.988 388.5,304.5C 388.756,303.311 389.089,302.144 389.5,301C 402.515,287.646 416.181,274.979 430.5,263C 411.793,260.625 393.127,257.958 374.5,255C 372.877,252.92 371.377,250.754 370,248.5C 363.411,234.243 356.911,219.91 350.5,205.5C 350.043,204.702 349.376,204.369 348.5,204.5 Z"/></g>
<g><path fill="#883100" style="opacity:0.904" d="M 481.5,205.5 C 484.711,206.013 487.544,207.346 490,209.5C 514.347,261.22 513.014,312.22 486,362.5C 448.506,419.992 395.34,445.492 326.5,439C 298.356,434.344 272.856,423.51 250,406.5C 246.469,397.895 249.136,392.229 258,389.5C 268.561,396.382 279.394,402.882 290.5,409C 351.05,433.164 404.55,422.664 451,377.5C 479.88,344.276 491.88,305.942 487,262.5C 483.574,246.702 478.741,231.035 472.5,215.5C 472.792,209.549 475.792,206.215 481.5,205.5 Z"/></g>
</svg>
